<?xml version="1.0" encoding="UTF-8"?>
<!DOCTYPE svg PUBLIC "-//W3C//DTD SVG 1.1//EN" "http://www.w3.org/Graphics/SVG/1.1/DTD/svg11.dtd">
<!-- Creator: CorelDRAW 2019 (64-Bit) -->
<svg xmlns="http://www.w3.org/2000/svg" xml:space="preserve" width="8.0232mm" height="8.4668mm" version="1.1" style="shape-rendering:geometricPrecision; text-rendering:geometricPrecision; image-rendering:optimizeQuality; fill-rule:evenodd; clip-rule:evenodd"
viewBox="0 0 56.69 59.83"
 xmlns:xlink="http://www.w3.org/1999/xlink"
 xmlns:xodm="http://www.corel.com/coreldraw/odm/2003">
 <defs>
  <style type="text/css">
   <![CDATA[
    .fil16 {fill:#074419}
    .fil11 {fill:#104E27}
    .fil9 {fill:#185428}
    .fil13 {fill:#194A24}
    .fil8 {fill:#295634}
    .fil7 {fill:#2A5330}
    .fil10 {fill:#30633C}
    .fil19 {fill:#375C43}
    .fil18 {fill:#396647}
    .fil17 {fill:#4B6F54}
    .fil24 {fill:#587B64}
    .fil21 {fill:#647F64}
    .fil2 {fill:#726962}
    .fil22 {fill:#8CA894}
    .fil0 {fill:#8E2C24}
    .fil1 {fill:#922D26}
    .fil25 {fill:#A6B9AA}
    .fil23 {fill:#ACBDB2}
    .fil27 {fill:#ACC1B3}
    .fil33 {fill:#B2AFAD}
    .fil32 {fill:#B46A40}
    .fil30 {fill:#B5C5BA}
    .fil31 {fill:#B7CAC1}
    .fil26 {fill:#BC9A97}
    .fil20 {fill:#C39A95}
    .fil29 {fill:#D2B2AE}
    .fil28 {fill:#E9D05F}
    .fil3 {fill:#F7EA28}
    .fil6 {fill:#F8EB1A}
    .fil12 {fill:#F8F378}
    .fil15 {fill:#FAF697}
    .fil14 {fill:#FBF8A7}
    .fil4 {fill:#FDEE12}
    .fil5 {fill:#FEF111}
   ]]>
  </style>
 </defs>
 <g id="Layer_x0020_1">
  <metadata id="CorelCorpID_0Corel-Layer"/>
  <g id="_2164431066624">
   <path class="fil0" d="M53.7 23.78c-0.19,0.59 -0.25,0.09 0,0.45 0.42,-0.17 0.13,-0.05 0.39,-0.18 0.04,-0.02 0.16,-0.1 0.2,-0.12 -0.02,0.04 -0.05,0.1 -0.07,0.13 -0.59,1.01 -0.26,0.18 -0.46,1.73 -0.1,0.76 -0.22,1.42 -0.22,2.34l0.45 -0.75 0.29 -1.19c0.62,3.58 -0.05,7.07 -2.54,8.37 -1.56,0.81 -3.38,0.15 -4.01,-0.91 -0.9,-1.52 0.09,-3.16 1.79,-2.91l0.11 -0.19c0,-0.24 -0.04,-0.25 -0.38,-0.31 -0.66,-0.11 -0.85,0.33 -1.43,-0.08 -0.18,-0.13 -0.25,-0.03 -0.44,-0.43l-0.27 0.2c0.83,0.02 0.26,0.03 0.43,0.6 -0.45,-0.02 -0.56,0.13 -0.73,-0.15 -0.03,2.32 0.22,0.68 0.3,2.24 -0.35,0.13 -0.26,0.13 -0.77,0.15 -0.2,0.72 -0.18,0.68 -0.57,1.05 0.4,-1.08 0.15,-3.54 0.15,-4.94l1.94 0c0.11,-0.6 -0.21,-0.14 0.45,-0.6 0,-1.1 -0.15,-1.15 0.16,-1.68l0.28 -0.41c-0.59,0.01 -0.65,0.08 -1.2,0.15 -0.09,-0.1 -0.14,-0.43 -0.15,-0.45 0.31,-0.93 -0.87,-1.93 -1.78,-1.5 -0.87,0.41 -0.7,2.05 -0.31,2.84 1.05,0 1.54,-0.23 2.39,-0.3 0.42,1.79 -0.62,1.35 -2.39,1.35 0,4.58 0.3,9.49 -2.49,12.91 -4.62,5.64 -11.47,4.71 -12.99,5.26 -0.43,0.16 -1.14,0.83 -1.06,1.53 0.07,0.61 0.69,1.17 1.41,1.08 1.05,-0.13 1.07,-1.08 1.07,-1.64l3.87 -0.47c1.26,-0.22 2.29,-0.73 3.76,-0.73 0,2.63 1.17,4.42 4.03,4.18 1.71,-0.14 4.91,-1.63 5.73,-2.54 -0.41,-0.18 -0.98,0.17 -1.38,0.29 -3.52,1.05 -6.95,-0.8 -6.01,-3.31 0.45,-1.2 2.35,-0.84 2.55,0.18 -0.68,1.05 -0.9,-0.28 -1.6,0.18 -0.7,1.01 1.48,2.16 2.49,2.36 1.64,0.32 3.11,-0.04 4.66,-0.35 0.95,-0.44 1.77,-1.41 2.46,-2.28 0.53,-0.68 1.87,-2.1 2.02,-2.91 0,-0.28 0.07,-0.2 -0.23,-0.2l-0.11 0.14c-0.84,1.1 -5.9,4.43 -8.49,2.63 -1.33,-0.93 -1.63,-3.32 0.49,-3.6 0.81,-0.11 2.23,0.08 2.19,0.88 -0.06,1.14 -1.21,0.1 -2.16,0.66 -0.46,1.73 2.85,1.33 3.88,1.07 1.19,-0.31 3.03,-1.1 3.87,-1.71 0.35,-0.22 0.56,-0.41 1.02,-0.31 0.08,-0.52 0.4,-0.9 0.62,-1.32 0.28,-0.53 0.45,-0.98 0.68,-1.56 0.27,-0.66 0.97,-2.79 0.89,-3.55l0.02 -0.52c-0.17,0.25 -0.02,0.03 -0.22,0.26l-0.37 0.43c-0.8,1.58 -3.63,4.48 -5.98,4.93 -1.73,0.33 -3.32,-0.6 -3.18,-2.25 0.13,-1.48 2.01,-2.41 3.54,-1.85 0.1,0.37 0.08,0.63 -0.04,0.98 -0.8,0.3 -1.68,-0.13 -1.89,0.88 1.33,1.85 5.91,-1.83 6.63,-2.25l0.35 -1.06c0.88,-1.73 0.55,-6.81 -0.03,-8.93l-0.87 -2.57 -0.45 0c-0.13,0.5 -0.1,0.22 -0.3,0.6z"/>
   <path class="fil1" d="M5.24 20.79c0.4,0.14 0.3,-0.33 0.3,0.6 -0.36,0.29 -0.52,0.89 0,1.2l-0 1.65c-1.25,0.03 -0.6,0.06 -0.87,0.37l-0.29 0.4c-0.02,0.02 -0.06,0.04 -0.08,0.06 -0.02,0.02 -0.07,0.04 -0.09,0.05 -0.5,0.35 -1.11,1.02 -0.47,1.51 -0.37,-0.49 -0.19,0.23 -0.56,-0.6 -0.02,-0.05 -0.04,-0.1 -0.06,-0.14 -0.02,-0.04 -0.04,-0.1 -0.07,-0.15 0.13,0.81 0.18,1.27 -0.05,2.05 -0.28,0.84 0.79,2.85 1.19,3.48 0.49,0.77 1.56,2.21 2.96,1.91 0.77,-1.19 -0.41,-1.31 0.18,-2.35 0.95,-0.98 3.12,1.51 1.34,3.29 -0.49,0.49 -0.87,0.48 -1.29,0.82 0.34,0.12 0.25,-0 0.25,0.38l-0.69 -0.03c-0.05,0.01 -0.09,0.03 -0.13,0.04 -0.04,0.01 -0.08,0.05 -0.12,0.06 -0.03,0.01 -0.07,0.05 -0.11,0.07 0.34,0.2 0.95,-0.01 1.37,0.02 0.75,0.06 0.78,0.48 0.88,0.79 0.11,0.29 1.91,0.97 0.89,3.01 0.33,0.08 1.25,0.27 1.01,-0.5 -0.26,-0.83 0.47,0.49 -0.15,-0.21l-0.25 -0.14c0.57,-0.21 0.38,-0.11 0.65,-0.42 0.4,-0.46 0.14,-0.85 0.35,-1.42 0.02,-0.04 0.04,-0.08 0.06,-0.12l0.14 -0.26c0,0.05 0.01,0.08 0.02,0.15 0.33,1.21 -0.63,-0.84 0.28,0.3 0,-1.17 -0.44,-2.63 -0.45,-5.24 -0,-0.64 0.21,-2.44 0.16,-2.69 -0.15,-0.72 -0.58,-0.45 -2.4,-0.45 -0.78,-3.36 2.8,1.1 2.7,-2.54 -0.02,-0.82 -0.55,-1.66 -1.4,-1.41 -0.88,0.26 -1.02,1.07 -1.45,1.71 -0.67,0 -0.87,0.16 -1.03,-0.33 -0.12,-0.37 0.19,-0.87 0.34,-1.11 0.39,-0.62 0.74,-1.09 1.09,-1.75 4.22,-7.86 1.43,-12.27 1.4,-14.01l-0.3 0c-0.89,3.83 -2.2,5.82 -3.84,8.87 -0.41,0.77 -1.26,2.25 -1.4,3.09z"/>
   <path class="fil0" d="M11.25 42.6c-0.8,-0.79 -2.06,0.49 -2.14,-0.74 -0.05,-0.81 1.49,-0.98 2.22,-0.87 2.04,0.32 1.79,2.69 0.38,3.64 -2.66,1.8 -7.4,-1.46 -8.61,-2.88 1.08,0.38 1.86,1.16 4.07,1.78 1.09,0.3 4.74,0.66 4.08,-0.93zm-10.7 -6.41c-0.22,1.84 2.75,7.06 4.49,8.86 0.45,0.47 1.83,2.07 2.43,2.18 1.58,0.28 2.94,0.69 4.65,0.32 1.14,-0.24 3,-1.15 2.46,-2.46 -0.84,-0.07 -0.7,0.55 -1.59,0.12 0.05,-1.29 2.05,-1.56 2.51,-0.43 0.52,1.28 -0.38,2.47 -1.1,2.98 -2.2,1.57 -6.18,-0.18 -6.44,-0.05l1.19 0.87c3.72,2.22 8.8,3.41 8.8,-2.36 1.1,0 1.03,0.03 1.81,0.28 1.2,0.39 4.48,0.89 5.67,0.92 0.14,1.74 1.38,1.93 2.11,1.37 1.1,-0.85 0.09,-2.27 -0.93,-2.4 -3.15,-0.41 -6.68,-0.52 -9.71,-2.55 -0.82,-0.55 -1.15,-0.73 -1.85,-1.44 -0.02,-0.02 -0.05,-0.05 -0.07,-0.08 -2.08,-2.18 -2.17,-3.02 -3,-5.37 -0.17,-0.47 0.06,-0.17 -0.16,-0.3 -0.91,-1.14 0.06,0.92 -0.28,-0.3 -0.02,-0.07 -0.02,-0.1 -0.02,-0.15l-0.14 0.26c-0.02,0.04 -0.04,0.08 -0.06,0.12 -0.21,0.57 0.04,0.96 -0.35,1.42 -0.27,0.31 -0.08,0.21 -0.65,0.42l0.25 0.14c0.63,0.7 -0.11,-0.62 0.15,0.21 0.24,0.77 -0.68,0.58 -1.01,0.5 -1.16,1.88 -3.88,0.84 -5.4,-0.21 -1.29,-0.9 -2.75,-2.43 -3.6,-3.94 0,0 -0.17,-0.22 -0.17,-0.23 -0.17,-0.19 -0.1,-0.1 -0.34,-0.24l0.35 1.53z"/>
   <path class="fil1" d="M25.87 19.74l-3.88 0.07 0.03 4.55 3.82 0.01c0.49,4.7 -1.72,4.03 4.24,4.05 0.14,0 0.46,0 0.58,-0.02 0.04,-0 0.08,-0.01 0.12,-0.02 0.04,-0.01 0.08,-0.02 0.11,-0.03l0.2 -0.09c0.06,-0.97 -0.18,-3.17 0.13,-3.91l3.93 -0.01 -0.03 -4.57 -3.86 -0.03c-0.03,-5.02 1.13,-3.99 -4.35,-4.05 -1.57,-0.02 -0.94,0.05 -1.04,4.05z"/>
   <path class="fil1" d="M47.42 25.87c0.01,0.02 0.06,0.34 0.15,0.45 0.55,-0.07 0.61,-0.14 1.2,-0.15l-0.28 0.41c-0.31,0.53 -0.16,0.58 -0.16,1.68 -0.66,0.46 -0.34,-0 -0.45,0.6l-1.94 0c-0,1.4 0.25,3.85 -0.15,4.94 0.4,-0.37 0.37,-0.33 0.57,-1.05 0.51,-0.02 0.42,-0.02 0.77,-0.15 -0.08,-1.56 -0.33,0.08 -0.3,-2.24 0.17,0.28 0.28,0.13 0.73,0.15 -0.17,-0.57 0.39,-0.57 -0.43,-0.6l0.27 -0.2c0.19,0.4 0.26,0.3 0.44,0.43 0.59,0.41 0.78,-0.03 1.43,0.08 0.34,0.06 0.38,0.07 0.38,0.31l-0.11 0.19c0.27,1.35 -0.64,1.78 0.12,2.36 1.48,1.12 3.87,-2.64 4.35,-5.71l-0.45 0.75c0,-0.92 0.12,-1.58 0.22,-2.34 0.2,-1.55 -0.13,-0.72 0.46,-1.73 0.02,-0.03 0.05,-0.08 0.07,-0.13 -0.04,0.02 -0.17,0.1 -0.2,0.12 -0.27,0.13 0.03,0 -0.39,0.18 -0.25,-0.36 -0.19,0.14 -0,-0.45 -0.46,0.15 -0.6,0.29 -1.2,0.3 0,-1.77 -0.59,-2.82 -1.15,-4.08 -1.48,-3.3 -3.93,-6.35 -4.98,-10.88l-0.3 -0.03 -0.18 0.44c-1.57,4.07 -0.6,9.63 1.54,13.34 0.56,0.97 1.72,2.19 1.28,2.93 -0.26,0.43 -0.81,0.14 -1.28,0.07z"/>
   <path class="fil2" d="M30.81 37.19l0.3 -0.06c0.66,-1.17 3.96,-3.98 5.25,-5.26 0.1,-0.11 0.1,-0.1 0.22,-0.23 0.02,-0.02 0.05,-0.05 0.07,-0.08 1.4,-1.42 6.44,-6.17 7.02,-7.04 -0.69,-0.46 -1.27,-1.58 -2.09,-1.79 -0.17,0.63 -0.3,0.45 -0.78,0.86 -0.35,0.3 -0.62,0.58 -0.86,0.93 -3.05,-0.25 -1.51,-1.11 -4.75,2.13l-4.03 3.9c-1.34,1.2 -0.2,2.11 -0.87,3.47 -0.31,0.62 -0.92,0.74 -1.27,1.27l1.79 1.9z"/>
   <path class="fil2" d="M29.13 8.94c0.39,0.56 1.35,1.26 1.56,1.65 0.45,0.85 -0.29,1.86 0.09,2.59l0.87 0.93c0.02,0.02 0.05,0.06 0.07,0.08l2.19 2.3c1.11,1.11 2.13,2.1 3.21,3.22 0.93,0.97 1.42,0.24 2.8,0.49 0.7,0.13 1.23,1.1 1.81,1.48 0.37,-0.25 0.59,-0.52 0.93,-0.86 0.36,-0.36 0.72,-0.55 0.86,-1.08l-9.35 -9.5c-0.72,-0.72 -2.52,-2.88 -3.22,-3.06l-1.83 1.76z"/>
   <path class="fil2" d="M13.76 24.38c0.51,0.77 2.26,2.33 3.03,3.1 0.89,0.89 9.04,8.73 9.24,9.46 0.65,-0.05 1.73,-1.26 2.09,-1.79 -0.44,-0.66 -1.64,-1.27 -1.64,-2.09 0,-2.68 0.81,-1.51 -1.38,-3.7 -0.77,-0.77 -4.98,-5.17 -5.53,-5.39 -0.7,-0.29 -1.63,0.02 -2.48,-0.21 -0.6,-0.16 -1,-0.96 -1.53,-1.31 -0.45,0.3 -1.66,1.44 -1.8,1.94z"/>
   <path class="fil2" d="M13.61 20.04l1.76 1.83c1.68,-1.15 0.91,-1.88 2.87,-1.68 0.51,0.05 1.01,0.24 1.43,0.08l6.48 -6.39c1.5,-1.47 -0.27,-2.37 1.19,-3.75 0.33,-0.31 0.55,-0.51 0.79,-0.86l-1.76 -1.83c-0.65,0.45 -1.1,1.02 -1.64,1.57l-1.65 1.49c-1.28,1.29 -9,8.85 -9.46,9.53z"/>
   <path class="fil3" d="M14.96 40.68c0,1.08 -0.12,1.4 0.91,1.23 4.29,-0.72 8.39,0.86 12.13,2.2 0.74,0.26 1.07,-0.08 2.22,-0.59 3.41,-1.51 6.5,-1.65 10.17,-1.65 0.75,0 0.67,0.13 1.35,0.15 0.49,-2.11 0.22,-2.09 -2.69,-2.09 -4.14,0 -6.5,0.81 -9.99,2.44 -0.03,0.01 -0.07,0.04 -0.1,0.05 -0.36,0.16 0.28,-0.05 -0.2,0.09 -0.41,0.12 -1.35,-0.43 -2.13,-0.78 -0.76,-0.34 -1.61,-0.63 -2.41,-0.89 -2.9,-0.93 -4.77,-0.97 -7.62,-0.78 -0.75,0.05 -1.63,-0.18 -1.63,0.61z"/>
   <path class="fil4" d="M20.89 37.69c0.36,0.27 0.53,0.13 1.29,0.4 0.02,0.01 0.07,0.02 0.11,0.05 0.25,0 0.47,-0.02 0.72,0.03 0.28,0.05 0.06,-0.01 0.34,0.1 0.21,0.09 0.17,0.09 0.28,0.17 1.45,0.03 4.33,1.68 5,1.56 0.02,-0 2.47,-1.08 3.56,-1.38 0.33,-0.09 0.4,-0.09 0.71,-0.19l0.55 -0.29c1.46,-0.94 6.75,-0.68 8.25,-0.62l-0.04 -1.32c-0.43,-0.23 -0.88,-0.22 -1.42,-0.26 -1.59,-0.11 -3.22,0 -4.79,0.25 -0.72,-0.27 -1.72,0.11 -2.37,0.32 -0.33,0.1 -0.63,0.18 -1.04,0.31 -0.4,0.13 -0.67,0.36 -0.93,0.31l-0.3 0.06c-0.21,0.37 -0.51,0.3 -1.3,0.7 -1.3,0.66 -0.55,0.63 -2.74,-0.35 -0.54,-0.24 -0.98,-0.64 -1.65,-0.48 -3.04,-0.85 -6.48,-1.55 -9.87,-0.96l0.04 1.39c0.92,-0.01 1.82,-0.19 2.8,-0.18 0.51,0.01 0.99,0.05 1.5,0.09 0.52,0.04 0.88,0.05 1.29,0.3z"/>
   <path class="fil0" d="M1.5 34.8c0.49,1.38 0.84,1.52 2.81,2.63 0.8,0.45 3.55,1.84 4.14,0.41 -0.62,-1.12 -1.84,-0.09 -2.04,-1.07 -0.26,-1.25 1.75,-0.68 2.42,-0.51 -0.1,-0.31 -0.13,-0.73 -0.88,-0.79 -0.41,-0.03 -1.02,0.18 -1.37,-0.02 0.04,-0.02 0.08,-0.06 0.11,-0.07 0.03,-0.01 0.08,-0.05 0.12,-0.06 0.04,-0.01 0.08,-0.03 0.13,-0.04l0.69 0.03c0,-0.39 0.1,-0.27 -0.25,-0.38 -1.68,-0.16 -3.22,-0.11 -4.34,-2.5 -0.39,-0.84 -0.6,-1.77 -0.69,-2.79 -0.06,-0.68 -0.15,-2.7 0.21,-3.32 0.05,0.22 0.07,0.47 0.13,0.73 0.02,0.1 0.07,0.29 0.1,0.38 0.09,0.23 0.11,0.26 0.19,0.37 0.23,-0.78 0.18,-1.24 0.05,-2.05 0.03,0.04 0.05,0.11 0.07,0.15 0.02,0.04 0.04,0.1 0.06,0.14 0.38,0.83 0.2,0.12 0.56,0.6 -0.64,-0.49 -0.03,-1.16 0.47,-1.51 0.02,-0.02 0.07,-0.04 0.09,-0.05 0.02,-0.02 0.06,-0.04 0.08,-0.06l0.29 -0.4c0.26,-0.31 -0.39,-0.34 0.87,-0.37l0 -1.65c-0.53,-0.31 -0.36,-0.9 -0,-1.2 0,-0.93 0.1,-0.46 -0.3,-0.6 0,0 -0.08,-0.26 -0.39,0.49l-0.66 2.8c-1.36,-0.11 -0.92,-0.66 -1.79,-0.9 -1.37,2.59 -2.09,9.15 -0.9,11.62z"/>
   <path class="fil4" d="M19.89 39.59c0.31,0.2 2.3,0.43 3.46,0.78 2.53,0.75 2.76,0.99 4.64,1.66 0.85,0.3 1.31,-0.31 2.95,-0.92 0.31,-0.11 0.4,-0.15 0.78,-0.27l0.68 -0.3c0.55,-0.35 1.28,-0.42 1.99,-0.59 0.65,-0.15 1.43,-0.27 2.16,-0.35 1.69,-0.18 3.44,-0.15 5.08,0.07l0.04 -1.41c-6.09,-0.45 -4.65,0.27 -8,0.48 -1.09,-0.41 -4.3,1.7 -5.11,1.75l-4.92 -2.05c-0.61,0 -0.39,-0.05 -0.9,0.15 -2.58,-0.35 -4.84,-0.79 -7.44,-0.29l-0.03 1.32c1.59,0.02 2.99,-0.29 4.63,-0.03z"/>
   <path class="fil5" d="M54 27.37c-0.48,3.07 -2.86,6.83 -4.35,5.71 -0.76,-0.57 0.16,-1.01 -0.12,-2.36 -1.7,-0.25 -2.7,1.39 -1.79,2.91 0.63,1.06 2.45,1.72 4.01,0.91 2.49,-1.3 3.16,-4.79 2.54,-8.37l-0.29 1.19z"/>
   <path class="fil5" d="M7.38 34.91c0.41,-0.33 0.79,-0.32 1.29,-0.82 1.77,-1.78 -0.39,-4.26 -1.34,-3.29 -0.59,1.04 0.6,1.16 -0.18,2.35 -1.41,0.31 -2.47,-1.13 -2.96,-1.91 -0.4,-0.63 -1.47,-2.64 -1.19,-3.48 -0.08,-0.11 -0.1,-0.14 -0.19,-0.37 -0.03,-0.08 -0.08,-0.28 -0.1,-0.38 -0.06,-0.26 -0.08,-0.51 -0.13,-0.73 -0.36,0.62 -0.27,2.64 -0.21,3.32 0.09,1.02 0.3,1.95 0.69,2.79 1.12,2.4 2.66,2.35 4.34,2.5z"/>
   <path class="fil5" d="M1.05 35.04l-0.33 0.08c0.85,1.51 2.3,3.04 3.6,3.94 1.52,1.05 4.24,2.09 5.4,0.21 1.02,-2.04 -0.78,-2.73 -0.89,-3.01 -0.67,-0.17 -2.68,-0.74 -2.42,0.51 0.2,0.98 1.42,-0.04 2.04,1.07 -0.59,1.43 -3.34,0.04 -4.14,-0.41 -1.96,-1.11 -2.31,-1.25 -2.81,-2.63l0 0.35c-0.19,-0.05 -0.33,-0.07 -0.45,-0.1z"/>
   <path class="fil5" d="M55 35.74c-0.71,0.42 -5.29,4.1 -6.63,2.25 0.22,-1 1.09,-0.58 1.89,-0.88 0.12,-0.35 0.14,-0.61 0.04,-0.98 -1.53,-0.55 -3.41,0.37 -3.54,1.85 -0.14,1.65 1.45,2.58 3.18,2.25 2.35,-0.45 5.18,-3.34 5.98,-4.93l-0.1 -0c-0.44,0.18 -0.43,0.26 -0.83,0.43z"/>
   <path class="fil5" d="M11.25 42.6c0.66,1.58 -2.99,1.23 -4.08,0.93 -2.2,-0.61 -2.99,-1.4 -4.07,-1.78 1.22,1.42 5.96,4.68 8.61,2.88 1.4,-0.95 1.65,-3.32 -0.38,-3.64 -0.73,-0.11 -2.27,0.06 -2.22,0.87 0.07,1.23 1.33,-0.05 2.14,0.74z"/>
   <path class="fil5" d="M53.5 41.96l-0.22 -0.07c-0.84,0.61 -2.68,1.4 -3.87,1.71 -1.03,0.27 -4.34,0.66 -3.88,-1.07 0.94,-0.56 2.1,0.48 2.16,-0.66 0.04,-0.79 -1.38,-0.99 -2.19,-0.88 -2.12,0.28 -1.82,2.67 -0.49,3.6 2.59,1.81 7.65,-1.52 8.49,-2.63z"/>
   <path class="fil6" d="M48.65 47.86c0.47,-0.14 0.49,-0.26 0.71,-0.65 -1.54,0.3 -3.02,0.67 -4.66,0.35 -1.02,-0.2 -3.2,-1.35 -2.49,-2.36 0.7,-0.46 0.91,0.87 1.6,-0.18 -0.2,-1.02 -2.1,-1.38 -2.55,-0.18 -0.93,2.51 2.5,4.36 6.01,3.31 0.4,-0.12 0.97,-0.47 1.38,-0.29z"/>
   <path class="fil6" d="M7.48 47.24l0.49 0.47c0.26,-0.12 4.24,1.62 6.44,0.05 0.72,-0.51 1.62,-1.7 1.1,-2.98 -0.46,-1.13 -2.46,-0.85 -2.51,0.43 0.89,0.43 0.75,-0.19 1.59,-0.12 0.55,1.31 -1.32,2.22 -2.46,2.46 -1.71,0.37 -3.07,-0.04 -4.65,-0.32z"/>
   <path class="fil7" d="M14.36 3.59c0,-1.76 1.64,-1.29 1.64,0.45 0,0.83 -1.64,0.96 -1.64,-0.45zm-0.9 -0.3c0,2.91 3.44,3 3.44,0.3 0,-2.31 -3.44,-2.57 -3.44,-0.3z"/>
   <path class="fil8" d="M18.7 55.19c0,0.57 -0.05,0.05 0.15,0.45 0.65,-0.17 0.6,-0.27 0.6,-1.05l0.15 0c0,1.35 1.05,1.68 1.05,-0.45l0.15 0c0,0.96 -0.2,1.28 0.6,1.49 0.3,-0.54 0.15,-2.42 0.15,-3.14l-1.05 0c-0.05,0.65 -0.3,0.95 -0.3,1.65l-0.15 0c0,-0.69 -0.25,-0.99 -0.3,-1.65l-1.05 0 0 2.69z"/>
   <path class="fil7" d="M37.55 2.99c0.4,1.71 0.56,1.79 1.5,1.79 -0.07,-0.89 -0.73,-1.58 -0.75,-2.54 0.52,-0.14 1.05,-0.5 1.2,-1.05 -0.89,-0.5 -1.05,0.27 -2.25,0.9 0.05,-0.58 0.15,-0.59 0.15,-1.35l-0.75 0c-0.05,0.61 -0.61,2.31 -0.61,3.02 0,0.87 0.47,0.91 0.75,0.44 0.52,-0.87 -0.41,-0.6 0.75,-1.22z"/>
   <path class="fil7" d="M31.41 3.14c0,0.99 -0.06,0.33 0.15,0.75 1.16,-0.1 0.51,-0.68 0.9,-1.49 1.16,0.31 0.16,1.64 1.94,1.64 -0.05,-0.65 -0.76,-1.85 -1.05,-2.39 0.45,-0.3 1.04,-0.76 1.2,-1.35 -0.78,0 -0.81,-0.02 -1.28,0.37 -0.02,0.02 -0.06,0.05 -0.08,0.07 -0.02,0.02 -0.06,0.05 -0.08,0.07l-0.31 0.29c-0.42,0.4 0.02,0.2 -0.51,0.39 0.18,-0.38 0.41,-1.35 -0.3,-1.35 -0.65,0 -0.42,0.62 -0.49,1.3 -0.06,0.5 -0.1,0.96 -0.1,1.69z"/>
   <path class="fil7" d="M40.54 5.23c0.29,0.16 2.17,0.89 2.41,0.84 0.27,-0.06 0.3,0.05 0.27,-0.37 -0.05,-0.83 -1,-0.19 -1.64,-1.06 0.34,-0.65 0.21,-0.57 1.01,-0.26 0.86,0.33 0.94,0.32 0.94,-0.49 -1.17,-0.56 -1.32,-0.03 -1.35,-1.05 1.08,0.09 1.91,1.11 1.95,-0.3 -0.5,-0.04 -2,-0.56 -2.39,-0.75l-1.2 3.44z"/>
   <path class="fil9" d="M45.77 4.79c0,0.45 0.07,0.74 0.5,1.15 0.54,0.5 0.53,0.01 0.55,0.95 -1.32,0 -0.77,-0.3 -1.02,-0.82 -0.77,-1.56 -1.6,1.72 0.87,1.72 0.87,0 1.57,-1.35 0.56,-2.2 -0.57,-0.48 -0.31,-0.04 -0.71,-0.79 0.88,-0.19 0.7,0.03 0.87,0.32 0.2,0.33 -0.16,0.23 0.78,0.73 0.08,-0.34 0.15,-0.34 0.15,-0.75 0,-1.14 -2.54,-1.74 -2.54,-0.3z"/>
   <path class="fil8" d="M29.32 1.54c-0.62,-0.07 -1.19,0.04 -1.71,-0.2l0.02 -0.6c0.54,-0.27 1.14,-0.08 1.83,-0.17 0.01,-0.02 0.4,-0.07 0.03,-0.44 -0.07,-0.07 -0.2,-0.11 -0.37,-0.14l-2.15 0 -0.03 0 -0.02 0c0,0.9 0,1.8 -0.01,2.7 -0.02,1.38 0.23,1.04 1.67,1.05 0.61,0 0.92,0.12 1.02,-0.35 0.19,-0.83 -0.93,-0.33 -1.65,-0.48 -0.45,-0.09 -0.15,-0.07 -0.14,-0.83 0.91,0 1.39,0.14 1.58,-0.21 0.29,-0.56 -0.08,-0.34 -0.08,-0.34z"/>
   <path class="fil9" d="M10.17 4.49l0.6 0 0 0.6c-0.55,0.15 -0.19,0.15 -0.75,0.3 -0.16,-0.31 -0.58,-0.9 0.15,-0.9zm-1.5 -0.15c0.17,0.73 0.78,1.85 1.14,2.6 0.27,0.57 0.11,0.55 0.65,0.69 0.02,-0.02 0.19,-0.19 0.21,-0.25 0.16,-0.39 0.02,-0.52 -0.36,-1.25 1.8,-0.95 1.58,-1.3 0.75,-2.54 -1.01,0 -1.39,0.08 -2.39,0.75z"/>
   <path class="fil9" d="M27.97 53.99l0 0zm0 0c-0.02,-0.03 -0.06,-0.1 -0.07,-0.08l-0.26 -0.34c-0.13,-0.19 -0.17,-0.3 -0.27,-0.48 -0.27,-0.48 -0.34,-0.52 -0.61,-0.58 -0.11,-0.03 -0.31,-0.02 -0.43,-0.02 0,0.96 -0.18,2.45 0.15,3.14 0.9,-0.24 0.68,-1.16 0.45,-1.64 0.48,0.17 0.37,0.34 0.69,0.95 0.14,0.27 0.49,0.85 0.88,0.64 0.5,-0.26 0.22,-2.43 0.22,-3.08 -1.06,0.02 -0.75,0.36 -0.75,1.5z"/>
   <path class="fil9" d="M11.52 54.14c0,1.12 -0.49,1.63 0.75,1.35 0,-0.65 -0.07,-0.74 0.15,-1.2 0.93,0.34 0.1,1.31 1.65,1.35 -0.06,-0.74 -0.9,-1.67 -0.9,-1.79 0,-0.4 0.69,-1.04 0.9,-1.35l-0.9 0c-0.15,0.23 -0.7,0.9 -0.9,1.05 0,-0.63 0.06,-0.6 -0.15,-1.05 -0.52,0.01 -0.67,0.05 -0.73,0.46 -0.04,0.3 0.13,0.6 0.13,1.18z"/>
   <path class="fil9" d="M38.74 54.44l0 0.45c-1.71,0 0,-0.45 -1.64,-0.45 0.13,1.55 2.39,1.74 2.39,0l0 -0.3c-1.74,-1.17 -1.26,-0.15 -1.5,-1.05 1.32,0.03 0.25,0.59 1.5,0.3 -0.59,-2.54 -4.46,0.18 -0.75,1.05z"/>
   <path class="fil9" d="M30.07 55.19c0,0.57 -0.05,0.05 0.15,0.45 1.11,-0.26 0.29,-0.4 0.75,-1.35 0.45,0.16 0.26,0.1 0.55,0.65 0.56,1.05 1.44,0.88 0.84,-0.08 -0.95,-1.51 -0.79,-0.8 0.26,-2.36l-0.9 0c-0.15,0.23 -0.69,0.9 -0.9,1.05 0,-0.9 0.19,-1.03 -0.75,-1.05l0 2.69z"/>
   <path class="fil10" d="M22.29 0.6l0 0.3c0.39,0.22 0.4,0.15 1.05,0.15 0,0.53 -0.08,2.84 0.45,2.84 0.78,0 0.51,-0.65 0.46,-1.2 -0.07,-0.76 0.12,-1.21 -0.16,-1.79 0.63,0 0.6,0.06 1.05,-0.15 -0.02,-0.97 -0.23,-0.63 -1.19,-0.6 -0.72,0.02 -1.66,-0.25 -1.66,0.45z"/>
   <path class="fil11" d="M43.58 53.24l-0.05 0.42c-0.45,0.19 -0.61,0.2 -1.11,0.03l0.04 -0.6c0.95,-0.35 1.02,0.04 1.12,0.15zm-1.56 2.25c0.23,0.12 -0.25,0.24 0.27,0.07 0.48,-0.15 0.35,-0.9 0.35,-1.27 0.43,0.23 0.35,0.12 0.63,0.57 0.19,0.31 0.21,0.64 0.63,0.74 1.19,0.3 -0.12,-1.16 -0.22,-1.31 0.44,-0.6 0.6,-0.14 0.6,-1.35 -0.19,-0.13 -0.28,-0.18 -0.45,-0.27l-1.91 -0.14 0.1 2.96z"/>
   <path class="fil12" d="M33.66 38.74c3.35,-0.21 1.9,-0.93 8,-0.48l-0.04 1.41c-1.64,-0.22 -3.38,-0.25 -5.08,-0.07 -0.72,0.08 -1.5,0.2 -2.16,0.35 -0.7,0.17 -1.44,0.23 -1.99,0.59 0.94,-0.02 1.69,-0.65 4.77,-0.79 0.03,0 0.07,-0 0.11,-0l4.61 0.04c0,-0.87 0.01,-1.11 -0.15,-1.79 -0.97,0 -2.78,-0.3 -4.32,-0.13 -0.55,0.06 -1.39,0.18 -1.96,0.28 -1.14,0.19 -1.42,0.03 -1.79,0.6z"/>
   <path class="fil13" d="M24.96 55.04c-0.03,-0.02 -0.07,-0.08 -0.09,-0.06l-0.47 -0.11c-0.25,-0.02 -0.64,0.01 -0.91,0.01 0.09,-1.1 0.58,-0.31 1.5,-0.75l0 -0.45c-0.48,-0.23 -0.82,-0.15 -1.5,-0.15 0.26,-0.98 0.79,-0.14 1.45,-0.52 0.48,-0.27 0.05,-0.39 0.05,-0.4l-2.04 -0.1 -0.03 2.94 1.92 -0c0.19,-0.28 0.24,0.34 0.13,-0.42z"/>
   <path class="fil7" d="M19.98 4.34c0.08,-0.04 0.01,-0.08 0.35,-0.16 1.47,-0.36 0.68,0.14 1.01,-0.44 -0.21,-0.14 -0.03,-0.29 -0.86,-0.09l-0.75 -0.08c-0.19,-0.79 -0.3,-2.2 -0.6,-2.83 -0.4,0.03 -0.41,0.07 -0.75,0.15 0.05,0.54 0.21,1.23 0.3,1.79 0.1,0.59 0.17,1.24 0.3,1.79 0.58,0 0.61,0.09 0.99,-0.15z"/>
   <path class="fil14" d="M20.89 37.69c-0.41,-0.25 -0.78,-0.25 -1.29,-0.3 -0.5,-0.04 -0.99,-0.08 -1.5,-0.09 -0.98,-0.01 -1.88,0.17 -2.8,0.18l-0.04 -1.39c3.39,-0.59 6.83,0.11 9.87,0.96 -0.45,-0.55 -1.37,-0.62 -2.28,-0.83 -1.14,-0.28 -2.71,-0.56 -3.83,-0.53l-2.56 0.05c-0.71,0.03 -0.81,0.11 -1.35,0.16 -0.55,2.36 0.08,1.78 1.8,1.65 1.48,-0.12 2.6,0.15 3.99,0.15z"/>
   <path class="fil14" d="M35.45 36.19c1.57,-0.25 3.2,-0.36 4.79,-0.25 0.53,0.04 0.99,0.03 1.42,0.26l0.04 1.32c-1.51,-0.05 -6.79,-0.31 -8.25,0.62l4.86 -0.59c1.05,-0.12 1.6,0.13 2.53,0.15 1.41,0.02 1.04,-0.24 1.04,-1.66 -1.18,-0.63 -4.08,-0.42 -5.58,-0.2 -0.03,0.01 -0.39,0.04 -0.4,0.05 -0.51,0.16 -0.15,-0.15 -0.45,0.3z"/>
   <path class="fil15" d="M19.89 39.59c-1.63,-0.26 -3.03,0.05 -4.63,0.03l0.03 -1.32c2.6,-0.51 4.86,-0.07 7.44,0.29l-0.45 -0.45c-1.28,0 -2.25,-0.3 -3.44,-0.31 -1.45,-0 -2.44,0.16 -3.74,0.16 -0.46,1.96 -0.29,1.84 1.57,1.75l1.57 -0.11c0.78,-0.03 0.83,0.17 1.21,0.15 0.73,-0.04 0.17,0.07 0.43,-0.19z"/>
   <path class="fil16" d="M35.88 55.05c-0.87,-0.03 -0.97,0.13 -1.55,-0.16l-0.01 -0.6c0.61,-0.31 0.51,-0.13 1.43,-0.18 0.03,-0.02 0.06,-0.1 0.06,-0.08 0,0.02 0.04,-0.06 0.04,-0.07 -0.04,-0.33 0.17,-0.1 -0.1,-0.19 -0.52,-0.04 -0.67,0.06 -1.19,-0.08l-0.26 -0.14c0.06,-0.96 0.58,-0.46 1.59,-0.64 0.52,0.16 0.04,-0.22 0,-0.25l-2.05 -0.1 0.01 2.91 1.89 -0.02c0.15,-0.19 0.09,-0.04 0.13,-0.39z"/>
   <path class="fil17" d="M34.55 58.33c0,1.11 -0.13,1.29 0.45,1.5 0.21,-0.44 0.15,-0.42 0.15,-1.05 0.66,0.48 0.18,0.82 1.05,1.05 0.25,-0.45 0.15,-1.01 0.15,-1.8 0,-0.42 -0.06,-0.28 -0.3,-0.45 -0.45,0.33 -0.3,0.26 -0.3,1.05 -0.64,-0.73 -0.15,-0.97 -1.05,-1.05 -0.08,0.34 -0.15,0.34 -0.15,0.75z"/>
   <path class="fil16" d="M17.28 55.06c-0.67,-0.04 -0.96,0.1 -1.49,-0.18l-0.02 -0.6c0.06,-0.02 0.12,-0.1 0.14,-0.06l0.54 -0.11c0.25,-0.02 0.47,0 0.76,-0.02 0.03,-0.01 0.06,-0.1 0.06,-0.07 0,0.02 0.04,-0.06 0.04,-0.07 -0.04,-0.33 0.23,-0.14 -0.1,-0.14 -0.24,-0.02 -0.79,0 -0.92,-0.02 -0.91,-0.15 -0.24,0.16 -0.58,-0.41 0.23,-0.62 -0.08,-0.41 0.74,-0.46 0.5,-0.03 0.38,0.1 0.86,-0.14 -0.39,-0.28 0.39,-0.09 -0.54,-0.23l-1.42 -0.01 -0.02 2.87 1.96 0.01 0 -0.37z"/>
   <path class="fil18" d="M40.84 58.48l0.15 0 -0.12 0.18 -0.02 -0.18zm0 0c-0.1,-0.11 -0.03,0 -0.21,-0.24 -0.52,-0.73 -0.14,-0.6 -0.84,-0.66 0,0.75 -0.09,1.74 0.15,2.24 0.65,-0.44 0.47,-0.31 0.3,-1.05 0.66,0.48 0.18,0.82 1.05,1.05 0.13,-0.27 0.46,-1.79 -0.15,-2.24 -0.43,0.32 -0.3,0.12 -0.3,0.9z"/>
   <path class="fil19" d="M42.18 58.48c0,1.1 0.69,1.71 1.95,1.05 0,-0.72 0.1,-1.05 -0.45,-1.05 -0.72,0 -0.32,0.49 -0.15,0.75 -1,-0.02 -0.92,-0.49 -0.45,-1.2 0.74,0.2 0.1,0.28 1.05,0.3 -0.15,-0.55 -0.16,-0.31 -0.45,-0.75 -0.58,0 -1.49,0.14 -1.49,0.9z"/>
   <path class="fil19" d="M19.3 58.48l0.15 0 -0.13 0.18 -0.02 -0.18zm0 0c-0.17,-0.2 0.03,0.11 -0.19,-0.25 -0.35,-0.56 -0.16,-0.5 -0.7,-0.64 -0.21,0.45 -0.15,0.56 -0.16,1.2 -0,0.83 -0.17,0.88 0.46,1.04l0 -1.05c0.65,0.48 0.18,0.82 1.05,1.05 0.24,-0.51 0.15,-1.49 0.15,-2.24 -0.74,0.06 -0.6,0.14 -0.6,0.9z"/>
   <path class="fil19" d="M20.82 58.06c-0.03,0.64 -0.15,1.73 0.82,1.76l0.05 0 0.04 0c0.87,-0.01 1,-0.49 1,-1.05 -0.82,-0.55 -0.69,-0.33 -1.05,-0.15l0.45 0.6 -0.75 0c-0.15,-0.58 -0.3,-0.35 0.15,-1.2 0.55,0.13 0.42,0.25 1.05,0.3 -0.07,-0.84 -0.57,-0.75 -1.35,-0.75l-0.42 0.48z"/>
   <path class="fil19" d="M23.48 58.03c0,1.72 -0.13,1.48 0.3,1.8 0.43,-0.32 0.3,-0.12 0.3,-0.9l0.3 0c0.14,0.61 0.22,0.84 0.9,0.9 -0.06,-0.7 -0.6,-1.02 -0.6,-1.2 0,-0.63 0.37,-0.11 0.45,-1.05 -0.72,0.06 -0.52,0.24 -1.05,0.6 -0.05,-0.59 0.09,-0.45 -0.45,-0.6 -0.1,0.18 -0.15,0.16 -0.15,0.45z"/>
   <path class="fil18" d="M37.84 58.63c0,-0.18 0.32,-0.34 0.23,0 -0.09,0.34 0.38,0 -0.07,0.04 -0.19,0.02 -0.16,0.26 -0.16,-0.04zm-0.75 1.2c0.86,-0.23 0.09,-0.45 1.35,-0.45 0.12,0.45 -0,0.33 0.45,0.45 0.27,-0.59 -0.42,-1.5 -0.6,-2.24 -0.64,0.05 -0.64,0.28 -0.84,0.81 -0.19,0.49 -0.34,0.86 -0.36,1.44z"/>
   <path class="fil18" d="M26.77 58.63c-0.07,-0.4 0.3,0.02 0.19,0.05 -0,0 -0.04,0 -0.04,0 -0.28,-0.02 -0.09,0.25 -0.15,-0.06zm-0.75 1.2c0.45,-0.12 0.33,0 0.45,-0.45 1.26,0 0.49,0.22 1.35,0.45 -0.01,-0.61 -0.14,-0.84 -0.35,-1.3 -0.57,-1.23 -0.16,-0.89 -0.85,-0.95 -0.16,0.7 -0.89,1.6 -0.6,2.24z"/>
   <path class="fil19" d="M16.6 58.48l0 0.45c-0.62,-0.45 -0.27,-0.15 0,-0.45zm-0.9 1.35c0.66,-0.24 0.11,-0.45 1.2,-0.45 0.12,0.45 -0,0.33 0.45,0.45 0.14,-0.31 -0.59,-3.9 -1.44,-1.29 -0.2,0.6 -0.41,0.84 -0.2,1.29z"/>
   <path class="fil19" d="M31.84 58.48l-0.48 0.05 0.05 -0.5c0.22,0.01 0.07,-0.29 0.48,0.12 0.32,0.32 -0.04,0.31 -0.06,0.33zm-1.02 -0.45c0,1.72 -0.13,1.48 0.3,1.8 0.43,-0.32 0.28,0.02 0.3,-0.75 0.56,-0.05 0.7,-0.22 1.05,-0.45l0 -0.75c-0.43,-0.23 -1.65,-0.66 -1.65,0.15z"/>
   <path class="fil10" d="M45.47 55.49c0.38,0.09 0.75,0.31 0.75,-0.3l0 -2.69 -0.75 0 0 2.99z"/>
   <path class="fil19" d="M14.46 58.44c-0.31,0.23 -0.07,0.26 -0.53,0.04l0.02 -0.42c0.46,-0.07 0.78,-0.03 0.51,0.38zm-1 -0.41c0,1.72 -0.13,1.48 0.3,1.8 0.44,-0.32 0.28,0.02 0.3,-0.75 1.94,-0.16 0.6,-1.49 0.6,-1.5 -0.83,0 -1.2,-0.12 -1.2,0.45z"/>
   <path class="fil20" d="M31.09 28.27c0.14,-0.2 0.09,0.04 0.16,-0.31l0.01 -1.49c0,-0.7 0,-1.4 0,-2.1 0.58,0.05 0.42,0.16 1.05,0.16 0.65,0 0.51,-0.14 1.2,-0.17 1.24,-0.04 0.91,0.33 1.8,-0.14 0,-0.53 0.06,-3.95 -0.01,-4.17 -0.17,-0.54 -2.99,-0.31 -4.02,-0.31l3.86 0.03 0.03 4.57 -3.93 0.01c-0.31,0.75 -0.07,2.94 -0.13,3.91z"/>
   <path class="fil21" d="M28.57 58.03c0,1.49 -0.11,1.76 0.36,1.8l0.57 0 0.05 0 0.06 0 0.07 0c0.33,-0.01 0.22,-0.08 0.38,-0.3 -0.23,-0.33 0.08,-0.3 -0.9,-0.3 0,-1.66 0.11,-1.35 -0.3,-1.64 -0.25,0.18 -0.3,0.02 -0.3,0.45z"/>
   <path class="fil22" d="M17.28 55.06l-0 0.37 -1.96 -0.01 0.02 -2.87 1.42 0.01c0.93,0.13 0.15,-0.05 0.54,0.23 -0.47,0.24 -0.35,0.11 -0.86,0.14 -0.82,0.04 -0.51,-0.16 -0.74,0.46 0.34,0.57 -0.33,0.25 0.58,0.41 0.12,0.02 0.67,-0.01 0.92,0.02 -0.29,-0.34 0.1,-0.27 -1.2,-0.27l0 -0.45 1.35 0 0 -0.6 -2.1 0 0 2.99c0.38,0.16 1.49,0.17 2.24,0 0,-0.85 0.04,-0.18 -0.22,-0.42z"/>
   <path class="fil23" d="M35.88 55.05c-0.04,0.35 0.02,0.2 -0.13,0.39l-1.89 0.02 -0.01 -2.91 2.05 0.1c-0.3,-0.19 0.36,-0.07 -0.44,-0.16 -0.65,-0.07 -1.64,-0.13 -1.79,0.32 -0.21,0.66 -0.07,2.25 0.14,2.68 0.48,0.23 1.76,0.23 2.24,0 0,-0.84 0.02,-0.19 -0.17,-0.43z"/>
   <path class="fil24" d="M33.21 58.03c0,1.72 -0.13,1.48 0.3,1.8 0.43,-0.3 0.3,-0.05 0.3,-1.8 0,-0.42 -0.07,-0.28 -0.3,-0.45 -0.25,0.18 -0.3,0.02 -0.3,0.45z"/>
   <path class="fil25" d="M24.96 55.04c0.12,0.77 0.07,0.15 -0.13,0.42l-1.92 0 0.03 -2.94 2.04 0.1c-0.23,-0.13 -2.04,-0.41 -2.23,0.18 -0.21,0.66 -0.07,2.25 0.14,2.68 0.48,0.23 1.76,0.23 2.24,0 0,-0.84 0.03,-0.19 -0.18,-0.45z"/>
   <path class="fil26" d="M25.84 24.38l-3.82 -0.01 -0.03 -4.55 3.88 -0.07c-1.02,0 -3.85,-0.22 -4.02,0.31 -0.22,0.69 -0.08,3.88 0.14,4.32l3.85 0z"/>
   <path class="fil27" d="M42.01 55.49l-0.1 -2.96 1.91 0.14c-0.2,-0.28 0.07,-0.12 -0.44,-0.19 -0.56,-0.07 -1.5,-0.13 -1.64,0.32 -0.05,0.16 -0.01,2.19 -0.01,2.53l0.28 0.15z"/>
   <path class="fil28" d="M55.34 34.68l-0.35 1.06c0.4,-0.17 0.39,-0.25 0.83,-0.43l0.1 0 0.37 -0.43c0.19,-0.23 0.05,-0.02 0.22,-0.26l-0.02 0.52c0.16,-0.19 0.2,0.07 0.2,-0.75 -0.7,0.06 -0.22,-0.07 -0.73,0.32 -0.22,0.17 -0.41,0.28 -0.62,0.43l0 -0.46z"/>
   <path class="fil25" d="M29.32 1.54c-0.26,-0.22 0.33,-0.15 -0.59,-0.21 -0.23,-0.01 -0.65,0.02 -0.91,0.02l0 -0.6c0.66,0 1.25,0.11 1.64,-0.17 -0.69,0.09 -1.3,-0.11 -1.83,0.17l-0.02 0.6c0.52,0.23 1.09,0.12 1.71,0.2z"/>
   <path class="fil29" d="M0.56 36.19l-0.35 -1.53c0.24,0.14 0.17,0.05 0.34,0.24 0.01,0.01 0.17,0.23 0.17,0.23l0.33 -0.08c-0.26,-0.47 -0.36,-0.59 -1.05,-0.64 0.2,0.88 0.17,1.44 0.56,1.79z"/>
   <path class="fil25" d="M35.75 53.77c-0.36,-0.34 -0.19,-0.22 -1.2,-0.22l0 -0.45c0.2,0 0.59,0.03 0.76,0.02 0.91,-0.07 0.33,0 0.59,-0.21 -1.01,0.19 -1.53,-0.32 -1.59,0.64l0.26 0.14c0.52,0.14 0.67,0.04 1.19,0.08z"/>
   <path class="fil30" d="M35.88 55.05c-0.36,-0.27 -0.8,-0.16 -1.33,-0.16l0 -0.6c0.99,0 0.81,0.12 1.2,-0.18 -0.92,0.05 -0.82,-0.13 -1.43,0.18l0.01 0.6c0.58,0.29 0.68,0.13 1.55,0.16z"/>
   <path class="fil27" d="M17.28 55.06c-0.23,-0.24 0.52,-0.12 -0.51,-0.19 -0.19,-0.01 -0.55,0.01 -0.76,0.01l0 -0.6c1.58,0 0.96,0 1.2,-0.19 -0.29,0.02 -0.5,0 -0.76,0.02l-0.54 0.11c-0.02,-0.04 -0.08,0.04 -0.14,0.06l0.02 0.6c0.53,0.28 0.82,0.13 1.49,0.18z"/>
   <path class="fil31" d="M43.58 53.24c-0.24,0.46 -0.21,0.43 -0.95,0.45l0 -0.6c0.47,0.01 0.56,0.07 0.95,0.15zm0 0c-0.1,-0.11 -0.17,-0.5 -1.12,-0.15l-0.04 0.6c0.5,0.18 0.66,0.16 1.11,-0.03l0.05 -0.42z"/>
   <path class="fil23" d="M19.98 4.34c0.63,0 1.14,-0.1 1.55,-0.3 -0.13,-0.27 -0.11,-0.19 -0.15,-0.6 -0.69,0 -0.58,-0.07 -0.9,0.21 0.83,-0.21 0.65,-0.05 0.86,0.09 -0.33,0.57 0.46,0.07 -1.01,0.44 -0.34,0.08 -0.27,0.12 -0.35,0.16z"/>
   <path class="fil32" d="M53.28 41.89l0.22 0.07 0.11 -0.14c0.29,0 0.23,-0.08 0.23,0.2l0.46 -0.45c-0.46,-0.1 -0.67,0.09 -1.02,0.31z"/>
   <path class="fil27" d="M14.46 58.44l-0.4 0.05 0 -0.31c0.77,0.07 0.3,-0.12 0.4,0.26zm0 0c0.27,-0.41 -0.05,-0.45 -0.51,-0.38l-0.02 0.42c0.46,0.22 0.22,0.19 0.53,-0.04z"/>
   <path class="fil27" d="M31.84 58.48l-0.42 0 0 -0.3c0.78,0.07 0.29,-0.13 0.42,0.3zm0 0c0.02,-0.02 0.37,-0.01 0.06,-0.33 -0.41,-0.41 -0.26,-0.12 -0.48,-0.12l-0.05 0.5 0.48 -0.05z"/>
   <polygon class="fil33" points="46.07,9.09 46.37,9.12 46.37,8.82 46.07,8.82 "/>
  </g>
 </g>
</svg>
